<mxfile host="app.diagrams.net" modified="2024-05-26T07:31:19.384Z" agent="Mozilla/5.0 (Macintosh; Intel Mac OS X 10_15_7) AppleWebKit/537.36 (KHTML, like Gecko) Chrome/125.0.0.0 Safari/537.36" etag="2Mgp6bAFnR14M3isgjDN" version="24.4.8" type="device">
  <diagram name="Page-1" id="LaBb1xaqWIHKG7blIkQ6">
    <mxGraphModel dx="1194" dy="637" grid="1" gridSize="10" guides="1" tooltips="1" connect="1" arrows="1" fold="1" page="1" pageScale="1" pageWidth="827" pageHeight="1169" math="0" shadow="0">
      <root>
        <mxCell id="0" />
        <mxCell id="1" parent="0" />
        <mxCell id="BsoCpErELxEFF1DA35jK-1" value="Raspberry Pi&lt;div&gt;&lt;br&gt;&lt;/div&gt;" style="rounded=0;whiteSpace=wrap;html=1;" vertex="1" parent="1">
          <mxGeometry x="150" y="80" width="230" height="390" as="geometry" />
        </mxCell>
        <mxCell id="BsoCpErELxEFF1DA35jK-2" value="HTU21D-M" style="rounded=0;whiteSpace=wrap;html=1;" vertex="1" parent="1">
          <mxGeometry x="530" y="80" width="210" height="210" as="geometry" />
        </mxCell>
        <mxCell id="BsoCpErELxEFF1DA35jK-3" value="3.3V" style="rounded=0;whiteSpace=wrap;html=1;" vertex="1" parent="1">
          <mxGeometry x="530" y="90" width="60" height="30" as="geometry" />
        </mxCell>
        <mxCell id="BsoCpErELxEFF1DA35jK-4" value="GND" style="rounded=0;whiteSpace=wrap;html=1;" vertex="1" parent="1">
          <mxGeometry x="530" y="250" width="60" height="30" as="geometry" />
        </mxCell>
        <mxCell id="BsoCpErELxEFF1DA35jK-5" value="SDA" style="rounded=0;whiteSpace=wrap;html=1;" vertex="1" parent="1">
          <mxGeometry x="530" y="130" width="60" height="30" as="geometry" />
        </mxCell>
        <mxCell id="BsoCpErELxEFF1DA35jK-6" value="SCL" style="rounded=0;whiteSpace=wrap;html=1;" vertex="1" parent="1">
          <mxGeometry x="530" y="170" width="60" height="30" as="geometry" />
        </mxCell>
        <mxCell id="BsoCpErELxEFF1DA35jK-11" style="edgeStyle=orthogonalEdgeStyle;rounded=0;orthogonalLoop=1;jettySize=auto;html=1;entryX=0;entryY=0.5;entryDx=0;entryDy=0;" edge="1" parent="1" source="BsoCpErELxEFF1DA35jK-7">
          <mxGeometry relative="1" as="geometry">
            <mxPoint x="320" y="60" as="sourcePoint" />
            <mxPoint x="540" y="105" as="targetPoint" />
            <Array as="points">
              <mxPoint x="440" y="105" />
              <mxPoint x="440" y="106" />
            </Array>
          </mxGeometry>
        </mxCell>
        <mxCell id="BsoCpErELxEFF1DA35jK-7" value="3.3V" style="rounded=0;whiteSpace=wrap;html=1;" vertex="1" parent="1">
          <mxGeometry x="300" y="90" width="40" height="30" as="geometry" />
        </mxCell>
        <mxCell id="BsoCpErELxEFF1DA35jK-8" value="X" style="rounded=0;whiteSpace=wrap;html=1;" vertex="1" parent="1">
          <mxGeometry x="340" y="90" width="40" height="30" as="geometry" />
        </mxCell>
        <mxCell id="BsoCpErELxEFF1DA35jK-10" style="edgeStyle=orthogonalEdgeStyle;rounded=0;orthogonalLoop=1;jettySize=auto;html=1;entryX=0;entryY=0.5;entryDx=0;entryDy=0;" edge="1" parent="1" source="BsoCpErELxEFF1DA35jK-9" target="BsoCpErELxEFF1DA35jK-4">
          <mxGeometry relative="1" as="geometry" />
        </mxCell>
        <mxCell id="BsoCpErELxEFF1DA35jK-9" value="GND" style="rounded=0;whiteSpace=wrap;html=1;" vertex="1" parent="1">
          <mxGeometry x="310" y="430" width="40" height="30" as="geometry" />
        </mxCell>
        <mxCell id="BsoCpErELxEFF1DA35jK-14" style="edgeStyle=orthogonalEdgeStyle;rounded=0;orthogonalLoop=1;jettySize=auto;html=1;entryX=0;entryY=0.5;entryDx=0;entryDy=0;" edge="1" parent="1" source="BsoCpErELxEFF1DA35jK-12" target="BsoCpErELxEFF1DA35jK-5">
          <mxGeometry relative="1" as="geometry" />
        </mxCell>
        <mxCell id="BsoCpErELxEFF1DA35jK-12" value="SDA" style="rounded=0;whiteSpace=wrap;html=1;" vertex="1" parent="1">
          <mxGeometry x="300" y="130" width="40" height="30" as="geometry" />
        </mxCell>
        <mxCell id="BsoCpErELxEFF1DA35jK-15" style="edgeStyle=orthogonalEdgeStyle;rounded=0;orthogonalLoop=1;jettySize=auto;html=1;entryX=0;entryY=0.5;entryDx=0;entryDy=0;" edge="1" parent="1" source="BsoCpErELxEFF1DA35jK-13" target="BsoCpErELxEFF1DA35jK-6">
          <mxGeometry relative="1" as="geometry" />
        </mxCell>
        <mxCell id="BsoCpErELxEFF1DA35jK-13" value="SCL" style="rounded=0;whiteSpace=wrap;html=1;" vertex="1" parent="1">
          <mxGeometry x="300" y="170" width="40" height="30" as="geometry" />
        </mxCell>
      </root>
    </mxGraphModel>
  </diagram>
</mxfile>
